<?xml version="1.0" encoding="UTF-8" standalone="no"?>
<!DOCTYPE svg PUBLIC "-//W3C//DTD SVG 1.1//EN" "http://www.w3.org/Graphics/SVG/1.1/DTD/svg11.dtd">
<svg version="1.1" xmlns="http://www.w3.org/2000/svg" xmlns:xlink="http://www.w3.org/1999/xlink" preserveAspectRatio="xMidYMid meet" viewBox="0 0 48 48" width="48" height="48"><defs><path d="M10.07 12.59C9.77 13.15 9.97 13.86 10.5 14.17C11.22 14.59 16.95 17.97 17.67 18.39C18.21 18.71 18.91 18.52 19.22 17.95C19.8 16.89 22.72 11.57 27.97 2C21.77 2 18.33 2 17.64 2C16.39 2 15.24 2.71 14.64 3.85C13.73 5.6 10.52 11.71 10.07 12.59Z" id="g4hAZp1qOb"></path><path d="M19.22 17.95C18.91 18.52 18.21 18.71 17.67 18.39C17.48 18.28 15.99 17.4 15.8 17.29C16.25 17.37 16.73 17.15 16.97 16.71C17.51 15.73 20.2 10.83 25.05 2L27.97 2C22.72 11.57 19.8 16.89 19.22 17.95Z" id="a1vuTfqi0"></path><path d="M34.4 3.95C33.82 2.75 32.64 2 31.35 2C30.74 2 27.7 2 22.23 2C26.43 9.39 28.77 13.5 29.23 14.32C29.21 14.33 29.19 14.34 29.16 14.35C28.72 14.55 28.74 15.21 29.19 15.39C29.8 15.63 34.64 17.56 35.24 17.8C35.52 17.91 35.84 17.76 35.94 17.47C36.18 16.84 38.04 11.81 38.28 11.18C38.45 10.71 37.99 10.26 37.55 10.46C36.92 9.16 34.72 4.6 34.4 3.95Z" id="e4CAhvtMZm"></path><path d="M35.94 17.47C35.84 17.76 35.52 17.91 35.24 17.8C35.12 17.75 34.51 17.5 33.41 17.07C34.72 13.53 35.45 11.57 35.59 11.18C35.72 10.85 35.52 10.52 35.23 10.43C34.96 10.35 34.73 10.17 34.61 9.91C34.32 9.31 32.01 4.54 31.72 3.95C31.14 2.75 29.96 2 28.67 2C28.94 2 31.08 2 31.35 2C32.64 2 33.82 2.75 34.4 3.95C34.71 4.6 37.24 9.81 37.55 10.46C38 10.27 38.45 10.71 38.28 11.18C37.81 12.44 36.18 16.84 35.94 17.47Z" id="bIGZeIi3K"></path><path d="M30.65 35.33C30.18 35.82 26.39 39.74 25.92 40.23C25.73 40.42 25.73 40.74 25.92 40.93C26.4 41.43 30.19 45.36 30.67 45.85C30.94 46.14 31.39 45.98 31.48 45.63C32.17 45.63 37.76 45.63 38.45 45.63C39.74 45.63 40.92 44.88 41.5 43.69C41.76 43.15 43.09 40.44 45.48 35.56L31.46 35.56L31.46 35.56C31.1 35.22 30.83 35.14 30.65 35.33Z" id="c3SaJnCBYD"></path><path d="M39.61 39.11C40.13 39.91 40.18 40.94 39.76 41.79C39.67 41.98 38.92 43.5 38.83 43.69C38.25 44.88 37.07 45.63 35.79 45.63C36.06 45.63 38.19 45.63 38.45 45.63C39.74 45.63 40.92 44.88 41.5 43.69C41.76 43.15 43.09 40.44 45.48 35.56L37.35 35.56L37.35 35.56C38.71 37.69 39.46 38.87 39.61 39.11Z" id="feH4nDYBU"></path><path d="M21.94 36.04C21.94 35.38 21.43 34.86 20.8 34.86C19.55 34.86 13.31 34.86 2.07 34.86C4.96 40.36 6.57 43.42 6.89 44.03C7.49 45.16 8.63 45.87 9.88 45.87C10.98 45.87 19.71 45.87 20.8 45.87C21.43 45.87 21.94 45.34 21.94 44.69C21.94 42.96 21.94 36.9 21.94 36.04Z" id="c6z72EfuL"></path><path d="M5.85 42.06L2.07 34.86L10.01 34.86L5.85 42.06Z" id="m3qlClzAV"></path><path d="M21.94 44.69C21.94 45.35 21.43 45.87 20.8 45.87C20.5 45.87 18.11 45.87 17.81 45.87C18.44 45.87 18.95 45.35 18.95 44.69C18.95 43.83 18.95 36.9 18.95 36.04C18.95 35.39 18.44 34.86 17.81 34.86C18.11 34.86 20.5 34.86 20.8 34.86C21.43 34.86 21.94 35.39 21.94 36.04C21.94 37.77 21.94 43.83 21.94 44.69Z" id="a7kZ7WEsX"></path><path d="M11.94 20.65C11.9 20.32 11.61 20.09 11.3 20.14C10.67 20.23 5.58 20.93 4.95 21.01C4.47 21.08 4.29 21.68 4.62 22.02C4.22 22.62 1.01 27.41 0.61 28.01C-0.13 29.11 -0.2 30.54 0.42 31.71C0.71 32.27 2.16 35.03 4.78 40.02C9.03 32.66 11.39 28.57 11.87 27.75C11.87 27.75 11.87 27.75 11.87 27.76C12.28 28.07 12.85 27.73 12.78 27.21C12.62 25.89 12.03 21.3 11.94 20.65Z" id="b1dO96jrgx"></path><path d="M11.87 27.75C11.39 28.57 9.03 32.66 4.78 40.02L3.32 37.24L9.09 27.26C9.19 27.09 9.24 27 9.25 26.98C9.34 26.83 9.51 26.76 9.68 26.8C9.68 26.8 9.68 26.8 9.68 26.8C10.03 26.86 10.4 26.56 10.34 26.14C10.29 25.75 10.05 23.83 9.6 20.37C10.62 20.23 11.19 20.15 11.3 20.14C11.61 20.1 11.9 20.32 11.94 20.65C12.03 21.3 12.7 26.55 12.79 27.21C12.85 27.73 12.28 28.07 11.87 27.76C11.87 27.75 11.87 27.75 11.87 27.75Z" id="a3pfMtLVF"></path><path d="M41.91 19.32C41.57 18.81 40.92 18.66 40.41 18.97C39.69 19.4 33.97 22.82 33.26 23.24C32.69 23.58 32.52 24.35 32.88 24.91C33.55 25.97 36.91 31.23 42.95 40.72C45.76 34.98 47.32 31.8 47.63 31.16C48.2 30.01 48.11 28.62 47.4 27.56C46.3 25.91 42.46 20.14 41.91 19.32Z" id="bD0R444n9"></path><path d="M42.95 40.71L41.39 38.25C43.47 34 44.63 31.64 44.86 31.16C45.42 30.01 45.33 28.62 44.62 27.56C44.27 27.03 42.51 24.38 39.33 19.61C39.98 19.23 40.33 19.01 40.41 18.97C40.92 18.66 41.57 18.81 41.91 19.32C42.46 20.14 46.85 26.73 47.4 27.56C48.11 28.62 48.2 30.01 47.63 31.16C47.01 32.44 45.45 35.62 42.95 40.71Z" id="fxcakMCgF"></path></defs><g><g><g><use xlink:href="#g4hAZp1qOb" opacity="1" fill="#29a361" fill-opacity="1"></use><g><use xlink:href="#g4hAZp1qOb" opacity="1" fill-opacity="0" stroke="#000000" stroke-width="1" stroke-opacity="0"></use></g></g><g><use xlink:href="#a1vuTfqi0" opacity="1" fill="#248f55" fill-opacity="1"></use><g><use xlink:href="#a1vuTfqi0" opacity="1" fill-opacity="0" stroke="#000000" stroke-width="1" stroke-opacity="0"></use></g></g><g><use xlink:href="#e4CAhvtMZm" opacity="1" fill="#34cb79" fill-opacity="1"></use><g><use xlink:href="#e4CAhvtMZm" opacity="1" fill-opacity="0" stroke="#000000" stroke-width="1" stroke-opacity="0"></use></g></g><g><use xlink:href="#bIGZeIi3K" opacity="1" fill="#2fb86e" fill-opacity="1"></use><g><use xlink:href="#bIGZeIi3K" opacity="1" fill-opacity="0" stroke="#000000" stroke-width="1" stroke-opacity="0"></use></g></g><g><use xlink:href="#c3SaJnCBYD" opacity="1" fill="#29a361" fill-opacity="1"></use><g><use xlink:href="#c3SaJnCBYD" opacity="1" fill-opacity="0" stroke="#000000" stroke-width="1" stroke-opacity="0"></use></g></g><g><use xlink:href="#feH4nDYBU" opacity="1" fill="#248f55" fill-opacity="1"></use><g><use xlink:href="#feH4nDYBU" opacity="1" fill-opacity="0" stroke="#000000" stroke-width="1" stroke-opacity="0"></use></g></g><g><use xlink:href="#c6z72EfuL" opacity="1" fill="#29a361" fill-opacity="1"></use><g><use xlink:href="#c6z72EfuL" opacity="1" fill-opacity="0" stroke="#000000" stroke-width="1" stroke-opacity="0"></use></g></g><g><use xlink:href="#m3qlClzAV" opacity="1" fill="#248f55" fill-opacity="1"></use><g><use xlink:href="#m3qlClzAV" opacity="1" fill-opacity="0" stroke="#000000" stroke-width="1" stroke-opacity="0"></use></g></g><g><use xlink:href="#a7kZ7WEsX" opacity="1" fill="#248f55" fill-opacity="1"></use><g><use xlink:href="#a7kZ7WEsX" opacity="1" fill-opacity="0" stroke="#000000" stroke-width="1" stroke-opacity="0"></use></g></g><g><use xlink:href="#b1dO96jrgx" opacity="1" fill="#34cb79" fill-opacity="1"></use><g><use xlink:href="#b1dO96jrgx" opacity="1" fill-opacity="0" stroke="#000000" stroke-width="1" stroke-opacity="0"></use></g></g><g><use xlink:href="#a3pfMtLVF" opacity="1" fill="#2fb86e" fill-opacity="1"></use><g><use xlink:href="#a3pfMtLVF" opacity="1" fill-opacity="0" stroke="#000000" stroke-width="1" stroke-opacity="0"></use></g></g><g><use xlink:href="#bD0R444n9" opacity="1" fill="#34cb79" fill-opacity="1"></use><g><use xlink:href="#bD0R444n9" opacity="1" fill-opacity="0" stroke="#000000" stroke-width="1" stroke-opacity="0"></use></g></g><g><use xlink:href="#fxcakMCgF" opacity="1" fill="#2fb86e" fill-opacity="1"></use><g><use xlink:href="#fxcakMCgF" opacity="1" fill-opacity="0" stroke="#000000" stroke-width="1" stroke-opacity="0"></use></g></g></g></g></svg>